<?xml version="1.0" standalone="no"?><!DOCTYPE svg PUBLIC "-//W3C//DTD SVG 1.1//EN" "http://www.w3.org/Graphics/SVG/1.1/DTD/svg11.dtd"><svg t="1642738937657" class="icon" viewBox="0 0 1024 1024" version="1.1" xmlns="http://www.w3.org/2000/svg" p-id="14733" xmlns:xlink="http://www.w3.org/1999/xlink" width="180" height="180"><defs><style type="text/css"></style></defs><path d="M670.6 122.3s48 38.1 48 85.2-48 85.2-48 85.2-48-38.1-48-85.2 48-85.2 48-85.2z" fill="#327522" p-id="14734"></path><path d="M666.6 361.1c-9.8 0-19.1-4.5-25.2-12.3-25-31.8-54.7-80.6-54.7-132 0-23.1 5.9-47.6 17.6-72.8 9.1-19.5 21.6-39.5 37.1-59.3 6.1-7.7 15.3-12.2 25.2-12.2 9.8 0 19.1 4.5 25.2 12.3 25 31.8 54.7 80.6 54.7 132 0 23.1-5.9 47.6-17.6 72.8-9.1 19.5-21.6 39.5-37.1 59.3-6.1 7.7-15.4 12.2-25.2 12.2z m0-198.6c-10.4 19.8-15.9 38.3-15.9 54.3 0 15.9 5.5 34.5 15.9 54.3 10.4-19.8 15.9-38.3 15.9-54.3 0-15.9-5.5-34.5-15.9-54.3z" fill="#331008" p-id="14735"></path><path d="M886.3 170.6s10.4 90.8-39.2 140.4c-49.6 49.6-140.4 39.2-140.4 39.2s-10.4-90.8 39.2-140.4c49.5-49.6 140.4-39.2 140.4-39.2z" fill="#3D8C2D" p-id="14736"></path><path d="M706.7 382.2c-8.5 0-16.6-3.4-22.6-9.4-6.3-6.3-9.7-14.9-9.3-23.8 1.8-47.2 12.9-112.3 55.4-154.9 42.8-42.8 107.9-53.8 154.9-55.5 8.9-0.3 17.5 3.1 23.8 9.4a32.1 32.1 0 0 1 9.4 23.8c-1.7 47.1-12.7 112.1-55.5 154.9C820 369.5 755 380.5 708 382.2h-1.3z m143.9-176c-26.3 4.4-55.8 13.8-75.2 33.1-19.3 19.3-28.6 48.8-33 75.2 26.2-4.4 55.7-13.8 75.1-33.1 19.3-19.3 28.7-48.9 33.1-75.2z" fill="#331008" p-id="14737"></path><path d="M482.6 584.2m-335.3 0a335.3 335.3 0 1 0 670.6 0 335.3 335.3 0 1 0-670.6 0Z" fill="#FF9B24" p-id="14738"></path><path d="M735.8 363.6c-56.3-42.8-127.4-68.3-204.6-68.3-182.9 0-331.2 143.3-331.2 320.2 0 70.5 23.6 135.7 63.6 188.6-77.1-58.6-126.7-149.6-126.7-251.8 0-176.8 148.3-320.2 331.2-320.2 110 0 207.4 51.8 267.7 131.5z" fill="#FFB636" p-id="14739"></path><path d="M818.4 584.2c0 185.2-150.1 335.3-335.3 335.3-67.2 0-129.8-19.8-182.2-53.8 20.8 4.1 42.4 6.2 64.4 6.2 185.2 0 335.3-150.1 335.3-335.3 0-118-60.9-221.7-153.1-281.5 154.4 30 270.9 165.9 270.9 329.1z" fill="#ED7321" p-id="14740"></path><path d="M473.6 933.5c-95.7 0-185.7-37.3-253.4-105-67.7-67.7-105-157.7-105-253.4s37.3-185.7 105-253.4c67.7-67.7 157.7-105 253.4-105 95.7 0 185.7 37.3 253.4 105 67.7 67.7 105 157.7 105 253.4s-37.3 185.7-105 253.4c-67.7 67.7-157.7 105-253.4 105z m0-652.6c-78.6 0-152.5 30.6-208.1 86.2-55.6 55.6-86.2 129.5-86.2 208.1s30.6 152.5 86.2 208.1c55.6 55.6 129.5 86.2 208.1 86.2s152.5-30.6 208.1-86.2c55.6-55.6 86.2-129.5 86.2-208.1s-30.6-152.5-86.2-208.1c-55.6-55.6-129.5-86.2-208.1-86.2z" fill="#331008" p-id="14741"></path></svg>